<svg width="48" height="56" viewBox="0 0 48 56" fill="none" xmlns="http://www.w3.org/2000/svg">
<g clip-path="url(#clip0)">
<path fill-rule="evenodd" clip-rule="evenodd" d="M29.4962 1.14536C29.693 1.34166 29.8491 1.57485 29.9556 1.83159C30.0622 2.08832 30.117 2.36355 30.117 2.64151C30.117 2.91947 30.0622 3.1947 29.9556 3.45143C29.8491 3.70817 29.693 3.94136 29.4962 4.13766L5.6296 28L29.4962 51.8623C29.893 52.2592 30.1159 52.7973 30.1159 53.3585C30.1159 53.9197 29.893 54.4579 29.4962 54.8547C29.0994 55.2515 28.5612 55.4744 28 55.4744C27.4388 55.4744 26.9007 55.2515 26.5039 54.8547L1.14537 29.4962C0.948575 29.2999 0.792439 29.0667 0.685906 28.8099C0.579373 28.5532 0.524536 28.278 0.524536 28C0.524536 27.722 0.579373 27.4468 0.685906 27.1901C0.792439 26.9333 0.948575 26.7002 1.14537 26.5039L26.5039 1.14536C26.7002 0.948563 26.9334 0.792427 27.1901 0.685894C27.4468 0.579361 27.722 0.524524 28 0.524524C28.278 0.524524 28.5532 0.579361 28.8099 0.685894C29.0667 0.792427 29.2999 0.948563 29.4962 1.14536Z" fill="#399BDA"/>
<path fill-rule="evenodd" clip-rule="evenodd" d="M46.4018 1.14536C46.5986 1.34166 46.7547 1.57485 46.8613 1.83159C46.9678 2.08832 47.0226 2.36355 47.0226 2.64151C47.0226 2.91947 46.9678 3.1947 46.8613 3.45143C46.7547 3.70817 46.5986 3.94136 46.4018 4.13766L22.5352 28L46.4018 51.8623C46.5983 52.0588 46.7541 52.2921 46.8605 52.5488C46.9668 52.8055 47.0215 53.0806 47.0215 53.3585C47.0215 53.6364 46.9668 53.9115 46.8605 54.1682C46.7541 54.4249 46.5983 54.6582 46.4018 54.8547C46.2053 55.0511 45.9721 55.207 45.7154 55.3133C45.4587 55.4197 45.1835 55.4744 44.9057 55.4744C44.6278 55.4744 44.3527 55.4197 44.0959 55.3133C43.8392 55.207 43.606 55.0511 43.4095 54.8547L18.051 29.4962C17.8542 29.2999 17.6981 29.0667 17.5915 28.8099C17.485 28.5532 17.4302 28.278 17.4302 28C17.4302 27.722 17.485 27.4468 17.5915 27.1901C17.6981 26.9333 17.8542 26.7002 18.051 26.5039L43.4095 1.14536C43.6058 0.948563 43.839 0.792427 44.0957 0.685894C44.3525 0.579361 44.6277 0.524524 44.9057 0.524524C45.1836 0.524524 45.4588 0.579361 45.7156 0.685894C45.9723 0.792427 46.2055 0.948563 46.4018 1.14536Z" fill="#399BDA"/>
</g>
<defs>
<clipPath id="clip0">
<rect width="47.5472" height="56" fill="white"/>
</clipPath>
</defs>
</svg>
