<svg width="48" height="56" viewBox="0 0 48 56" fill="none" xmlns="http://www.w3.org/2000/svg">
<g clip-path="url(#clip0)">
<path fill-rule="evenodd" clip-rule="evenodd" d="M18.5038 54.8546C18.307 54.6583 18.1509 54.4251 18.0444 54.1684C17.9378 53.9117 17.883 53.6364 17.883 53.3585C17.883 53.0805 17.9378 52.8053 18.0444 52.5486C18.1509 52.2918 18.307 52.0586 18.5038 51.8623L42.3704 28L18.5038 4.13765C18.107 3.74084 17.8841 3.20266 17.8841 2.6415C17.8841 2.08033 18.107 1.54215 18.5038 1.14534C18.9006 0.748543 19.4388 0.52562 20 0.52562C20.5612 0.52562 21.0993 0.748543 21.4961 1.14534L46.8546 26.5038C47.0514 26.7001 47.2076 26.9333 47.3141 27.1901C47.4206 27.4468 47.4755 27.722 47.4755 28C47.4755 28.278 47.4206 28.5532 47.3141 28.8099C47.2076 29.0667 47.0514 29.2998 46.8546 29.4961L21.4961 54.8546C21.2998 55.0514 21.0666 55.2076 20.8099 55.3141C20.5532 55.4206 20.278 55.4755 20 55.4755C19.722 55.4755 19.4468 55.4206 19.1901 55.3141C18.9333 55.2076 18.7001 55.0514 18.5038 54.8546Z" fill="#399BDA"/>
<path fill-rule="evenodd" clip-rule="evenodd" d="M1.59819 54.8546C1.4014 54.6583 1.24526 54.4251 1.13873 54.1684C1.0322 53.9117 0.977362 53.6364 0.977362 53.3585C0.977362 53.0805 1.0322 52.8053 1.13873 52.5486C1.24526 52.2918 1.4014 52.0586 1.59819 51.8623L25.4648 28L1.59819 4.13765C1.40172 3.94117 1.24586 3.70792 1.13953 3.45121C1.0332 3.1945 0.97847 2.91936 0.97847 2.6415C0.97847 2.36364 1.0332 2.08849 1.13953 1.83178C1.24586 1.57507 1.40172 1.34182 1.59819 1.14534C1.79467 0.948868 2.02792 0.793015 2.28463 0.68668C2.54134 0.580349 2.81648 0.52562 3.09435 0.52562C3.37221 0.52562 3.64735 0.580349 3.90406 0.68668C4.16077 0.793015 4.39402 0.948868 4.5905 1.14534L29.949 26.5038C30.1458 26.7001 30.3019 26.9333 30.4085 27.1901C30.515 27.4468 30.5698 27.722 30.5698 28C30.5698 28.278 30.515 28.5532 30.4085 28.8099C30.3019 29.0667 30.1458 29.2998 29.949 29.4961L4.5905 54.8546C4.3942 55.0514 4.161 55.2076 3.90427 55.3141C3.64753 55.4206 3.3723 55.4755 3.09435 55.4755C2.81639 55.4755 2.54116 55.4206 2.28442 55.3141C2.02769 55.2076 1.79449 55.0514 1.59819 54.8546Z" fill="#399BDA"/>
</g>
<defs>
<clipPath id="clip0">
<rect width="47.5472" height="56" fill="white" transform="translate(48 56) rotate(-180)"/>
</clipPath>
</defs>
</svg>
